<?xml version="1.0" standalone="no"?>
<!DOCTYPE svg PUBLIC "-//W3C//DTD SVG 20010904//EN"
 "http://www.w3.org/TR/2001/REC-SVG-20010904/DTD/svg10.dtd">
<svg version="1.0" xmlns="http://www.w3.org/2000/svg"
 width="800.000000pt" height="800.000000pt" viewBox="0 0 800.000000 800.000000"
 preserveAspectRatio="xMidYMid meet">

<g transform="translate(0.000000,800.000000) scale(0.100000,-0.100000)"
fill="#000000" stroke="none">
<path d="M3763 6395 c-352 -64 -670 -310 -838 -650 -101 -206 -130 -339 -122
-570 4 -116 11 -172 30 -247 60 -230 155 -397 316 -559 240 -241 520 -359 851
-359 330 0 621 120 850 350 482 485 475 1246 -17 1721 -174 167 -377 276 -593
315 -95 17 -381 17 -477 -1z"/>
<path d="M3165 3786 c-281 -45 -538 -176 -716 -363 -127 -135 -194 -245 -243
-401 -31 -98 -25 -54 -122 -1024 l-75 -757 22 -51 c37 -85 156 -177 384 -296
801 -418 1779 -499 2639 -218 346 113 711 299 848 432 26 25 56 67 67 93 l21
48 -89 743 c-49 409 -94 789 -100 845 -47 440 -379 789 -880 926 l-116 32
-780 2 c-594 1 -799 -2 -860 -11z"/>
</g>
</svg>
